<svg xmlns="http://www.w3.org/2000/svg" width="530.985" height="85.677"><g data-name="Layer 2"><path d="M13.08 22.08H0V0h50.398v22.08h-13.08v61.916H13.08zM54.358 0h21.36v32.278h5.28V0h21.359v83.996h-21.36V52.197h-5.28v31.8H54.359zm53.641 0h39.838v17.52h-21.48v16.079h20.52v17.279h-20.52v15.6h21.84v17.518h-40.198zm59.757 64.917V0h15.96v63.837c0 4.08 1.68 6.36 3.96 6.36 2.64 0 3.84-2.28 3.84-6.36V0h16.078v64.917c0 13.44-8.28 20.76-20.159 20.76-11.52 0-19.68-7.32-19.68-20.76zM213.475 0h12.72l12 41.758h.24V0h13.56v83.996h-13.201l-11.52-39.718h-.24v39.718h-13.56zm44.998 0h11.4v73.077h18.12v10.92h-29.52zm35.758 0h9.24v83.996h-9.24zm16.439 0h14.04l9.6 52.918h.24l9-52.918h13.199v83.996H345.83V36.6h-.36l-7.68 47.397h-7.8l-8.039-47.638h-.24v47.638h-11.04zm52.68 0h16.08v83.996h-16.08zm32.638 17.52H383.87V0h42.958v17.52h-12.36v66.476h-18.48zM430.908 0h42.479v19.679h-21.12v12.84h20.04v19.319h-20.04v12.48h21.48v19.678h-42.839zm47.039 0h28.2c13.079 0 24.838 7.68 24.838 26.519v30.959c0 17.64-11.76 26.518-24.838 26.518h-28.2zm26.16 63.598c2.64 0 2.64-1.681 2.64-6v-31.2c0-4.319 0-5.999-2.64-5.999h-1.92v43.199z" fill="#f9453d" data-name="Layer 1"/></g></svg>